<svg width="512" height="512" viewBox="0 0 512 512" fill="none" xmlns="http://www.w3.org/2000/svg">
  <!-- DNA Helix design for pharmaceutical digital twin -->
  <!-- Left strand -->
  <path d="M140 80 Q100 120 100 180 T 140 280 T 100 380 T 140 480"
        stroke="#ff5f46" stroke-width="16" fill="none" stroke-linecap="round"/>

  <!-- Right strand -->
  <path d="M372 80 Q412 120 412 180 T 372 280 T 412 380 T 372 480"
        stroke="#ff5f46" stroke-width="16" fill="none" stroke-linecap="round"/>

  <!-- Connecting bars (base pairs) -->
  <line x1="118" y1="100" x2="394" y2="100" stroke="#ff5f46" stroke-width="8" opacity="0.8"/>
  <line x1="106" y1="140" x2="406" y2="140" stroke="#ff5f46" stroke-width="8" opacity="0.7"/>
  <line x1="100" y1="180" x2="412" y2="180" stroke="#ff5f46" stroke-width="8" opacity="0.9"/>
  <line x1="106" y1="220" x2="406" y2="220" stroke="#ff5f46" stroke-width="8" opacity="0.7"/>
  <line x1="118" y1="260" x2="394" y2="260" stroke="#ff5f46" stroke-width="8" opacity="0.8"/>
  <line x1="128" y1="300" x2="384" y2="300" stroke="#ff5f46" stroke-width="8" opacity="0.7"/>
  <line x1="140" y1="340" x2="372" y2="340" stroke="#ff5f46" stroke-width="8" opacity="0.9"/>
  <line x1="128" y1="380" x2="384" y2="380" stroke="#ff5f46" stroke-width="8" opacity="0.7"/>
  <line x1="118" y1="420" x2="394" y2="420" stroke="#ff5f46" stroke-width="8" opacity="0.8"/>
  <line x1="106" y1="460" x2="406" y2="460" stroke="#ff5f46" stroke-width="8" opacity="0.7"/>

  <!-- Molecular nodes -->
  <circle cx="140" cy="80" r="12" fill="#ff5f46"/>
  <circle cx="372" cy="80" r="12" fill="#ff5f46"/>
  <circle cx="100" cy="180" r="12" fill="#ff5f46"/>
  <circle cx="412" cy="180" r="12" fill="#ff5f46"/>
  <circle cx="140" cy="280" r="12" fill="#ff5f46"/>
  <circle cx="372" cy="280" r="12" fill="#ff5f46"/>
  <circle cx="100" cy="380" r="12" fill="#ff5f46"/>
  <circle cx="412" cy="380" r="12" fill="#ff5f46"/>
  <circle cx="140" cy="480" r="12" fill="#ff5f46"/>
  <circle cx="372" cy="480" r="12" fill="#ff5f46"/>
</svg>
